<svg xmlns="http://www.w3.org/2000/svg" width="72" height="72" viewBox="0 0 72 72">
  <g id="brick-wall-wall-svgrepo-com" transform="translate(1 1)">
    <g id="Group_166" data-name="Group 166" transform="translate(-1 -1)">
      <path id="Path_31" data-name="Path 31" d="M69.758-1H.241A1.173,1.173,0,0,0-1,.241V69.759A1.173,1.173,0,0,0,.241,71H69.759A1.173,1.173,0,0,0,71,69.759V.241A1.173,1.173,0,0,0,69.758-1ZM52.379,58.586H44.931V51.138h14.9v7.448ZM35,58.586H27.552V51.138h14.9v7.448Zm-17.379,0H10.172V51.138h14.9v7.448Zm-16.138,0V51.138H7.69v7.448ZM17.621,11.414h7.448v7.448h-14.9V11.414Zm17.379,0h7.448v7.448h-14.9V11.414Zm17.379,0h7.448v7.448h-14.9V11.414Zm16.138,0v7.448H62.31V11.414Zm0,17.379H53.62V21.345h14.9Zm0,9.931H62.31V31.276h6.207Zm0,9.931H53.62V41.207h14.9Zm-24.827,0H36.241V41.207h14.9v7.448Zm-17.379,0H18.862V41.207h14.9v7.448Zm-17.379,0H1.483V41.207h14.9v7.448ZM1.483,31.276H7.69v7.448H1.483V31.276Zm0-9.931h14.9v7.448H1.483Zm24.827,0h7.448v7.448h-14.9V21.345Zm17.379,0h7.448v7.448h-14.9V21.345ZM59.827,38.724h-14.9V31.276h14.9ZM35,38.724H27.552V31.276h14.9v7.448Zm-17.379,0H10.172V31.276h14.9v7.448ZM7.69,18.862H1.483V11.414H7.69ZM62.31,51.138h6.207v7.448H62.31ZM68.517,8.931H53.62V1.483h14.9Zm-17.379,0h-14.9V1.483h14.9V8.931Zm-17.379,0h-14.9V1.483h14.9ZM1.483,1.483h14.9V8.931H1.483Zm0,59.586h14.9v7.448H1.483Zm17.379,0h14.9v7.448h-14.9Zm17.379,0h14.9v7.448h-14.9Zm32.276,7.448h-14.9V61.069h14.9v7.448Z" transform="translate(1 1)"/>
    </g>
  </g>
</svg>
