<svg id="fireplace-svgrepo-com" xmlns="http://www.w3.org/2000/svg" width="85.154" height="85.154" viewBox="0 0 85.154 85.154">
  <path id="Path_32" data-name="Path 32" d="M8.419,31A1.419,1.419,0,0,0,7,32.419v29.8a1.419,1.419,0,0,0,2.838,0v-29.8A1.419,1.419,0,0,0,8.419,31Z" transform="translate(2.935 12.996)"/>
  <path id="Path_33" data-name="Path 33" d="M52.419,63.642a1.419,1.419,0,0,0,1.419-1.419v-29.8a1.419,1.419,0,0,0-2.838,0v29.8A1.419,1.419,0,0,0,52.419,63.642Z" transform="translate(21.381 12.996)"/>
  <path id="Path_34" data-name="Path 34" d="M83.735,32.642H70.366L59.012,12.773h-.823V8.515H56.77V4.258H55.35V0H29.8V4.258H28.385V8.515H26.966v4.258h-.823L14.788,32.642H1.419a1.419,1.419,0,0,0,0,2.838H2.838v7.1H5.677V78.058H2.838v7.1H82.316v-7.1H79.477V42.577h2.838v-7.1h1.419a1.419,1.419,0,1,0,0-2.838ZM32.642,2.838H52.512V4.258H32.642ZM31.223,7.1H53.931V8.515H31.223ZM29.8,11.354H55.35v1.419H29.8Zm-2.015,4.258H57.366L67.1,32.642H18.057ZM8.515,42.577h5.677V78.058H8.515ZM68.123,78.058H58.189a4.252,4.252,0,0,1-4-2.838h4V66.7h-5.8A11.968,11.968,0,0,0,51,52.983l-2.45-2.843a1.418,1.418,0,0,0-1.5-.43,1.4,1.4,0,0,0-.529.3,25.113,25.113,0,0,0-2.413-5,1.44,1.44,0,0,0-.131-.179l-.3-.348A1.425,1.425,0,0,0,42.606,44h0a1.416,1.416,0,0,0-1.074.494L39.14,47.266a16.8,16.8,0,0,0-3.713,7.522,1.42,1.42,0,0,0-2.475-.1,11.633,11.633,0,0,0-.129,12.018H25.546v8.515h5.416a4.252,4.252,0,0,1-4,2.838H17.031V42.577H68.123Zm-29.9-17.075A13.784,13.784,0,0,1,41.29,49.118l1.15-1.333a18.491,18.491,0,0,1,2.4,8.846,1.419,1.419,0,0,0,2.752.485,24.558,24.558,0,0,0,.791-2.83l.473.548a9.032,9.032,0,0,1,.1,11.831c-.1.114-.211.216-.318.324l-.123.121a8.677,8.677,0,0,1-1.3,1.043l-.054.035A8.436,8.436,0,0,1,45.8,68.9c-.057.024-.115.045-.172.067a8.476,8.476,0,0,1-1.375.407c-.067.013-.133.021-.2.033a8.231,8.231,0,0,1-1.419.136h-.05a8.384,8.384,0,0,1-1.408-.135c-.085-.014-.172-.026-.257-.044a8.24,8.24,0,0,1-1.321-.392c-.078-.03-.156-.061-.233-.094a8.258,8.258,0,0,1-1.3-.68c-.034-.021-.067-.045-.1-.068A8.653,8.653,0,0,1,36.7,67.107l-.062-.061c-.153-.152-.307-.3-.45-.468a8.909,8.909,0,0,1-2.025-7.066,21.359,21.359,0,0,0,1.529,2.7,1.38,1.38,0,0,0,1.719.43A1.484,1.484,0,0,0,38.219,60.983Zm4.867,11.4c.116-.006.23-.035.346-.044a11.275,11.275,0,0,0,1.2-.153c.166-.031.331-.057.5-.1a11.288,11.288,0,0,0,1.389-.424c.141-.053.278-.105.417-.163a11.4,11.4,0,0,0,1.5-.759c.034-.021.065-.044.1-.065a11.38,11.38,0,0,0,1.529-1.133H55.35v2.838H43.085Zm-7.936-2.838c.018.017.041.028.06.044a11.3,11.3,0,0,0,1.463,1.089c.031.02.06.043.091.061a11.3,11.3,0,0,0,1.458.735c.16.068.321.133.483.194a11.278,11.278,0,0,0,1.438.44c.167.038.336.055.505.087a10.935,10.935,0,0,0,1.1.141c.125.01.248.043.373.048H28.385V69.543ZM51.236,75.22a7.047,7.047,0,0,0,1.311,2.838H32.606a7.028,7.028,0,0,0,1.311-2.838Zm28.241,7.1H5.677V80.9h73.8Zm-2.838-4.258H70.962V42.577h5.677Zm2.838-38.319H5.677V35.481h73.8Z"/>
</svg>
