<svg id="furniture-svgrepo-com" xmlns="http://www.w3.org/2000/svg" width="75.846" height="75.846" viewBox="0 0 75.846 75.846">
  <g id="Group_239" data-name="Group 239">
    <g id="Group_238" data-name="Group 238">
      <path id="Path_71" data-name="Path 71" d="M74.3,34.053H46.436V1.548A1.548,1.548,0,0,0,44.888,0H1.548A1.548,1.548,0,0,0,0,1.548V74.3a1.548,1.548,0,0,0,1.548,1.548H42.566A1.548,1.548,0,0,0,44.114,74.3V69.654H62.689V74.3a1.548,1.548,0,0,0,1.548,1.548h5.418A1.548,1.548,0,0,0,71.2,74.3V69.654h.774a1.548,1.548,0,0,0,1.548-1.548V42.566H74.3a1.548,1.548,0,0,0,1.548-1.548V35.6A1.548,1.548,0,0,0,74.3,34.053ZM21.67,72.75H3.1V59.593H21.67Zm0-16.253H3.1V3.1H21.67ZM35.6,72.75H24.766V3.1H43.34V34.053H31.731A1.548,1.548,0,0,0,30.183,35.6v5.418a1.548,1.548,0,0,0,1.548,1.548h1.548v25.54a1.548,1.548,0,0,0,1.548,1.548H35.6Zm5.418,0H38.7v-3.1h2.322Zm27.088,0H65.785v-3.1h2.322Zm2.322-6.191H36.375V55.723H70.428Zm0-13.931H36.375V42.566H70.428ZM72.75,39.471H33.279V37.149H72.75Z"/>
      <rect id="Rectangle_144" data-name="Rectangle 144" width="4.727" height="2.836" transform="translate(51.05 45.851)"/>
      <rect id="Rectangle_145" data-name="Rectangle 145" width="4.727" height="3.309" transform="translate(51.05 58.613)"/>
      <rect id="Rectangle_146" data-name="Rectangle 146" width="2.836" height="6.145" transform="translate(27.889 24.58)"/>
      <rect id="Rectangle_147" data-name="Rectangle 147" width="2.836" height="6.145" transform="translate(15.599 24.58)"/>
      <rect id="Rectangle_148" data-name="Rectangle 148" width="4.727" height="2.836" transform="translate(9.926 64.285)"/>
    </g>
  </g>
</svg>
