<svg xmlns="http://www.w3.org/2000/svg" width="106.821" height="67.466" viewBox="0 0 106.821 67.466">
  <g id="kitchen-svgrepo-com_1_" data-name="kitchen-svgrepo-com(1)" transform="translate(0 -10.5)">
    <g id="Group_272" data-name="Group 272" transform="translate(0 10.5)">
      <path id="Path_75" data-name="Path 75" d="M104.947,12.5H78.711a1.872,1.872,0,0,0-1.874,1.874V49.981H1.874A1.872,1.872,0,0,0,0,51.855V74.344a1.872,1.872,0,0,0,1.874,1.874H104.947a1.872,1.872,0,0,0,1.874-1.874V14.374A1.872,1.872,0,0,0,104.947,12.5ZM76.836,61.226H54.348v-7.5H76.836Zm-73.088-7.5H28.111V72.47H3.748Zm28.111,0H50.6v7.5h-.067v3.748H50.6v7.5H31.859ZM54.348,64.974H76.836v7.5H54.348Zm48.726,7.5H80.585V40.611h22.489ZM80.585,36.863V16.248h22.489V36.863Z" transform="translate(0 -8.752)"/>
      <rect id="Rectangle_186" data-name="Rectangle 186" width="3.819" height="8.274" transform="translate(82.742 17.185)"/>
      <rect id="Rectangle_187" data-name="Rectangle 187" width="3.819" height="9.547" transform="translate(82.742 33.733)"/>
      <rect id="Rectangle_188" data-name="Rectangle 188" width="3.182" height="8.274" transform="translate(22.277 47.099)"/>
      <path id="Path_76" data-name="Path 76" d="M31.118,35.5H19.874A1.872,1.872,0,0,0,18,37.374v9.37a1.872,1.872,0,0,0,1.874,1.874H31.118a1.872,1.872,0,0,0,1.874-1.874v-9.37A1.872,1.872,0,0,0,31.118,35.5Zm-1.874,9.37h-7.5V39.248h7.5Z" transform="translate(15.733 11.352)"/>
      <path id="Path_77" data-name="Path 77" d="M39.237,36.737h7.5V32.989H40.717L35.706,11.941A1.876,1.876,0,0,0,33.883,10.5h-8.03a1.876,1.876,0,0,0-1.823,1.441L19.016,32.989H13v3.748H39.237ZM27.331,14.248H32.4l4.464,18.741h-14Z" transform="translate(11.363 -10.5)"/>
    </g>
  </g>
</svg>
