<svg xmlns="http://www.w3.org/2000/svg" width="67.518" height="62.312" viewBox="0 0 67.518 62.312">
  <path id="outdoor-fence-svgrepo-com" d="M66.54,68.971H55.416a.977.977,0,0,1-.977-.977V60.327H49.371v7.667a.977.977,0,0,1-.977.977H37.27a.977.977,0,0,1-.977-.977V60.327H31.225v7.667a.977.977,0,0,1-.977.977H19.124a.977.977,0,0,1-.977-.977V60.327H13.079v7.667a.977.977,0,0,1-.977.977H.977A.977.977,0,0,1,0,67.993V15.819a.976.976,0,0,1,.169-.549L5.731,7.087a.977.977,0,0,1,1.616,0L12.91,15.27a.976.976,0,0,1,.169.549v9.1h5.067v-9.1a.976.976,0,0,1,.169-.549l5.562-8.183a.977.977,0,0,1,1.616,0l5.562,8.183a.976.976,0,0,1,.169.549v9.1h5.067v-9.1a.976.976,0,0,1,.169-.549l5.562-8.183a.977.977,0,0,1,1.616,0L49.2,15.27a.976.976,0,0,1,.169.549v9.1h5.067v-9.1a.976.976,0,0,1,.169-.549L60.17,7.087a.977.977,0,0,1,1.616,0l5.562,8.183a.976.976,0,0,1,.169.549V67.993A.977.977,0,0,1,66.54,68.971ZM56.393,67.016h9.17V16.12L60.978,9.375,56.393,16.12Zm-18.146,0h9.17V16.12L42.832,9.375,38.247,16.12Zm-18.146,0h9.17V16.12L24.686,9.375,20.1,16.12Zm-18.146,0h9.17V16.12L6.54,9.375,1.955,16.12Zm47.417-8.644h5.067v-2H49.372Zm-18.146,0h5.067v-2H31.225Zm-18.146,0h5.067v-2H13.079Zm36.293-3.95h5.067v-23.6H49.372Zm-18.146,0h5.067v-23.6H31.225Zm-18.146,0h5.067v-23.6H13.079ZM49.372,28.868h5.067v-2H49.372Zm-18.146,0h5.067v-2H31.225Zm-18.146,0h5.067v-2H13.079Z" transform="translate(0 -6.659)" fill="#000002"/>
</svg>
